# AST/ASF file generated using VICON BodyLanguage
# -----------------------------------------------
:version 1.10
:name VICON
:units
  mass 1.0
  length 0.45
  angle deg
:documentation
   .ast/.asf automatically generated from VICON data using
   VICON BodyBuilder and BodyLanguage model FoxedUp or BRILLIANT.MOD
:root
   order TX TY TZ RX RY RZ
   axis XYZ
   position 0 0 0  
   orientation 0 0 0 
:bonedata
  begin
     id 1 
     name lhipjoint
     direction 0.627412 -0.730575 0.26947 
     length 2.49821 
     axis 0 0 0  XYZ
  end
  begin
     id 2 
     name lfemur
     direction 0.34202 -0.939693 0  
     length 6.89165  
     axis 0 0 20  XYZ
    dof rx ry rz
    limits (-160.0 20.0)
           (-70.0 70.0)
           (-60.0 70.0)
  end
  begin
     id 3 
     name ltibia
     direction 0.34202 -0.939693 0   
     length 7.91287   
     axis 0 0 20   XYZ
    dof rx
    limits (-10.0 170.0)
  end
  begin
     id 4 
     name lfoot
     direction 0.0941675 -0.258723 0.96135   
     length 2.16919   
     axis -90 7.62852e-016 20   XYZ
    dof rx rz
    limits (-45.0 90.0)
           (-70.0 20.0)
  end
  begin
     id 5 
     name ltoes
     direction 1.5347e-011 -4.21941e-011 1   
     length 1.08535   
     axis -90 7.62852e-016 20   XYZ
    dof rx
    limits (-90.0 20.0)
  end
  begin
     id 6 
     name rhipjoint
     direction -0.614241 -0.740361 0.27308   
     length 2.46519  
     axis 0 0 0  XYZ 
  end
  begin
     id 7 
     name rfemur
     direction -0.34202 -0.939693 0   
     length 7.27512   
     axis 0 0 -20   XYZ
    dof rx ry rz
    limits (-160.0 20.0)
           (-70.0 70.0)
           (-70.0 60.0)
  end
  begin
     id 8 
     name rtibia
     direction -0.34202 -0.939693 0   
     length 7.89523   
     axis 0 0 -20   XYZ
    dof rx
    limits (-10.0 170.0)
 end
 begin
     id 9 
     name rfoot
     direction -0.0860444 -0.236405 0.967837   
     length 2.29534  
     axis -90 -7.62852e-016 -20   XYZ
    dof rx rz
    limits (-45.0 90.0)
           (-20.0 70.0)
  end
  begin
     id 10 
     name rtoes
     direction -1.53608e-011 -4.21861e-011 1   
     length 1.14915   
     axis -90 -7.62852e-016 -20   XYZ
    dof rx
    limits (-90.0 20.0)
  end
  begin
     id 11 
     name lowerback
     direction -0.00734074 0.997215 -0.0742143   
     length 2.13469   
     axis 0 0 0   XYZ
    dof rx ry rz
    limits (-20.0 45.0)
           (-30.0 30.0)
           (-30.0 30.0)
  end
  begin
     id 12 
     name upperback
     direction 0.0285728 0.99958 -0.00488656   
     length 2.13416   
     axis 0 0 0   XYZ
    dof rx ry rz
    limits (-20.0 45.0)
           (-30.0 30.0)
           (-30.0 30.0)
  end
  begin
     id 13 
     name thorax
     direction 0.0316844 0.999056 0.0297249   
     length 2.14463   
     axis 0 0 0   XYZ
    dof rx ry rz
    limits (-20.0 45.0)
           (-30.0 30.0)
           (-30.0 30.0)
  end
  begin
     id 14 
     name lowerneck
     direction -0.0281545 0.996802 0.0747864   
     length 1.79004   
     axis 0 0 0   XYZ
    dof rx ry rz
    limits (-20.0 45.0)
           (-30.0 30.0)
           (-30.0 30.0)
  end
  begin
     id 15 
     name upperneck
     direction -0.00100185 0.982732 -0.185031   
     length 1.79988   
     axis 0 0 0   XYZ
    dof rx ry rz
    limits (-20.0 45.0)
           (-30.0 30.0)
           (-30.0 30.0)
  end
  begin
     id 16
     name head
     direction 0.00403747 0.997539 -0.0700022  
     length 1.81696  
     axis 0 0 0   XYZ
    dof rx ry rz
    limits (-20.0 45.0)
           (-30.0 30.0)
           (-30.0 30.0)
  end
  begin
     id 17 
     name lclavicle
     direction 0.959882 0.242905 -0.140082  
     length 3.87755  
     axis 0 0 0   XYZ
    dof ry rz
    limits (-20.0 10.0)
           (0.0 20.0)
  end
  begin
     id 18 
     name lhumerus
     direction 1 -4.4895e-011 3.76166e-027   
     length 5.14601   
     axis 180 -30 -90   XYZ
    dof rx ry rz
    limits (-60.0 90.0)
           (-90.0 90.0)
           (-90.0 90.0)
  end
  begin
     id 19
     name lradius
     direction 1 -4.48966e-011 -3.24039e-027   
     length 3.64452   
     axis 180 -30 -90   XYZ
    dof rx
    limits (-10.0 170.0)
  end
  begin
     id 20
     name lwrist
     direction 1 -4.48999e-011 2.57119e-027   
     length 1.82226   
     axis -1.61769e-015 90 90   XYZ
    dof ry
    limits (-180.0 0.0)
 end
  begin
     id 21 
     name lhand
     direction 1 -4.48961e-011 5.13984e-027   
     length 0.56228   
     axis -3.27988e-015 90 90   XYZ
    dof rx rz
    limits (-90.0 90.0)
           (-45.0 45.0)
  end
  begin
     id 22 
     name lfingers
     direction 1 -4.48991e-011 1.02836e-026   
     length 0.453325   
     axis -6.5598e-015 90 90   XYZ
    dof rx
    limits (0.0 90.0)
  end
  begin
     id 23
     name lthumb
     direction 0.707107 -6.34956e-011 0.707107   
     length 0.650886   
     axis -90 45 2.19363e-014   XYZ
    dof rx rz
    limits (-45.0 45.0)
           (-45.0 45.0)
  end
  begin
     id 24 
     name rclavicle
     direction -0.929201 0.345171 -0.132073   
     length 3.55416  
     axis 0 0 0   XYZ 
    dof ry rz
    limits (-10.0 20.0)
           (-20.0 0.0)
  end
  begin
     id 25 
     name rhumerus
     direction -1 -4.48979e-011 4.53734e-027  
     length 5.33913   
     axis 180 30 90   XYZ
    dof rx ry rz
    limits (-90.0 60.0)
           (-90.0 90.0)
           (-90.0 90.0)
  end
  begin
     id 26 
     name rradius
     direction -1 -4.4896e-011 -2.24007e-027   
     length 3.56478   
     axis 180 30 90   XYZ
    dof rx
    limits (-10.0 170.0)
  end
  begin
     id 27 
     name rwrist
     direction -1 -4.48923e-011 2.56866e-027   
     length 1.78239   
     axis -1.61769e-015 -90 -90   XYZ
    dof ry
    limits (-180.0 0.0)
  end
  begin
     id 28
     name rhand
     direction -1 -4.48914e-011 5.13667e-027   
     length 0.857474   
     axis -3.27988e-015 -90 -90   XYZ
    dof rx rz
    limits (-90.0 90.0)
           (-45.0 45.0)
  end
  begin
     id 29
     name rfingers
     direction -1 -4.49112e-011 1.02998e-026   
     length 0.691318   
     axis -6.5598e-015 -90 -90   XYZ
    dof rx
    limits (0.0 90.0)
  end
  begin
     id 30
     name rthumb
     direction -0.707107 -6.34979e-011 0.707107   
     length 0.992598   
     axis -90 -45 -2.19363e-014   XYZ
    dof rx rz
    limits (-45.0 45.0)
           (-45.0 45.0)
  end
:hierarchy
  begin
    root lhipjoint rhipjoint lowerback
    lhipjoint lfemur
    lfemur ltibia
    ltibia lfoot
    lfoot ltoes
    rhipjoint rfemur
    rfemur rtibia
    rtibia rfoot
    rfoot rtoes
    lowerback upperback
    upperback thorax
    thorax lowerneck lclavicle rclavicle
    lowerneck upperneck
    upperneck head
    lclavicle lhumerus
    lhumerus lradius
    lradius lwrist
    lwrist lhand lthumb
    lhand lfingers
    rclavicle rhumerus
    rhumerus rradius
    rradius rwrist
    rwrist rhand rthumb
    rhand rfingers
  end

#!OML:ASF F:\VICON\USERDATA\INSTALL\Justin4\Justin4.ASF
:FULLY-SPECIFIED
:DEGREES
2088
root -4.8573 17.1619 16.2134 1.08986 -40.4641 1.82065
lowerback 16.839 2.49792 3.4011
upperback 3.26932 3.96335 2.45688
thorax -5.86695 1.85595 -0.159121
lowerneck -14.91 8.06833 -2.13464
upperneck 13.0697 12.2718 -5.37012
head 6.65407 5.34612 -0.140451
rclavicle -2.70347e-014 -3.97569e-014
rhumerus -18.9906 2.78784 -71.654
rradius 131.685
rwrist -5.98929
rhand -5.49754 21.8888
rfingers 7.12502
rthumb 20.3153 -367.069
lclavicle -2.70347e-014 -3.97569e-014
lhumerus -8.63987 5.88248 86.0747
lradius 132.552
lwrist 7.43387
lhand -12.9696 11.3644
lfingers 7.12502
lthumb 13.1225 40.9315
rfemur -15.8331 -4.64786 2.27528
rtibia 44.8638
rfoot -10.5334 -3.67385
rtoes -22.1981
lfemur -26.8299 10.2415 -10.392
ltibia 50.4687
lfoot -2.82834 -5.09008
ltoes -38.4183
2089
root -4.76768 17.1994 16.2845 0.713717 -41.7669 2.72804
lowerback 17.2958 2.57369 3.53966
upperback 3.11713 4.12692 2.63171
thorax -6.27739 1.92247 -0.111682
lowerneck -13.9315 8.16924 -2.14957
upperneck 12.8286 12.4484 -5.9748
head 6.4572 5.41368 -0.35377
rclavicle 1.10922e-013 1.43125e-014
rhumerus -19.2545 3.79734 -70.1564
rradius 131.703
rwrist -6.04994
rhand -6.46042 22.4564
rfingers 7.12502
rthumb 19.3897 -366.597
lclavicle 1.10922e-013 1.43125e-014
lhumerus -9.54465 6.09816 86.248
lradius 132.518
lwrist 7.82293
lhand -13.4828 11.2215
lfingers 7.12502
lthumb 12.6278 40.8198
rfemur -16.7963 -4.54507 1.09868
rtibia 44.9264
rfoot -9.78771 -2.56709
rtoes -20.4347
lfemur -27.3812 11.0376 -11.2009
ltibia 51.2824
lfoot -1.60689 -5.78494
ltoes -39.8468
2090
root -4.66811 17.2343 16.3313 0.595015 -43.2641 3.34728
lowerback 18.1169 2.70492 3.58928
upperback 2.70574 4.41412 3.18968
thorax -7.20369 2.04086 0.341003
lowerneck -12.5984 8.10051 -2.79933
upperneck 12.8832 12.4964 -6.49006
head 6.24976 5.39386 -0.466731
rclavicle -1.49089e-013 6.36111e-014
rhumerus -17.834 3.91866 -69.3763
rradius 131.27
rwrist -6.00904
rhand -5.48315 22.1841
rfingers 7.12502
rthumb 20.3291 -366.772
lclavicle -1.49089e-013 6.36111e-014
lhumerus -11.0186 6.20642 86.7631
lradius 132.706
lwrist 6.96393
lhand -14.1139 12.2272
lfingers 7.12502
lthumb 12.0193 41.8621
rfemur -18.1482 -4.11433 0.321719
rtibia 45.0158
rfoot -8.54126 -1.94392
rtoes -19.1802
lfemur -28.1157 12.2152 -11.7587
ltibia 52.0509
lfoot 0.538156 -5.79602
ltoes -36.9089
2091
root -4.54747 17.2575 16.3369 1.15165 -44.5929 3.39324
lowerback 18.9942 2.5549 4.0217
upperback 2.55282 4.39812 3.73823
thorax -7.86115 2.00587 0.64946
lowerneck -12.4292 8.12123 -3.53028
upperneck 13.1835 12.726 -6.82696
head 6.30449 5.42851 -0.440107
rclavicle -2.54444e-014 -3.18055e-015
rhumerus -16.1857 4.69709 -68.4312
rradius 131.043
rwrist -6.28974
rhand -5.38716 21.831
rfingers 7.12502
rthumb 20.4214 -367.115
lclavicle -2.54444e-014 -3.18055e-015
lhumerus -11.5249 6.87461 86.73
lradius 132.74
lwrist 6.10427
lhand -14.5788 13.2662
lfingers 7.12502
lthumb 11.5709 42.9267
rfemur -20.176 -3.71175 0.201327
rtibia 45.3521
rfoot -6.92994 -1.98942
rtoes -17.6798
lfemur -29.7597 13.4551 -11.8104
ltibia 53.0076
lfoot 1.02218 -9.37829
ltoes -46.607
2092
root -4.46372 17.3121 16.4854 -1.31461 -46.3507 6.79214
lowerback 18.4299 2.54933 3.61607
upperback 3.52446 4.13006 2.78182
thorax -6.45641 1.90838 -0.0367228
lowerneck -13.0823 8.30621 -2.93412
upperneck 13.0855 12.9779 -7.2959
head 6.46044 5.52665 -0.620127
rclavicle -1.35174e-014 3.65764e-014
rhumerus -13.8286 4.25278 -68.6579
rradius 130.771
rwrist -6.80124
rhand -4.82699 21.4996
rfingers 7.12502
rthumb 20.9596 -367.388
lclavicle -1.35174e-014 3.65764e-014
lhumerus -10.6807 7.11663 85.5061
lradius 132.496
lwrist 5.90059
lhand -15.108 13.7314
lfingers 7.12502
lthumb 11.0606 43.42
rfemur -20.9351 -4.43383 -3.04701
rtibia 45.5638
rfoot -6.07736 -0.759986
rtoes -14.6323
lfemur -29.4606 14.4475 -14.4722
ltibia 53.7257
lfoot 3.79779 -8.8481
ltoes -39.9073
2093
root -4.33802 17.3303 16.5311 -1.83209 -47.7253 7.52654
lowerback 20.0952 2.81971 3.52992
upperback 3.56873 4.57089 3.24153
thorax -7.33883 2.09664 0.320723
lowerneck -13.1273 8.33929 -2.42295
upperneck 13.1947 13.1301 -8.41435
head 6.62549 5.52167 -1.01811
rclavicle -1.28017e-013 3.81667e-014
rhumerus -12.8016 3.83715 -67.2267
rradius 130.768
rwrist -7.74425
rhand -4.58239 21.4533
rfingers 7.12502
rthumb 21.1946 -367.408
lclavicle -1.28017e-013 3.81667e-014
lhumerus -10.7399 7.11638 85.4377
lradius 132.455
lwrist 6.11253
lhand -15.6445 13.2957
lfingers 7.12502
lthumb 10.5431 43.0113
rfemur -22.393 -4.08509 -3.64498
rtibia 45.9821
rfoot -4.93829 -1.90264
rtoes -10.8428
lfemur -30.3451 15.2895 -14.7725
ltibia 54.7623
lfoot 5.92693 -9.5231
ltoes -35.9464
2094
root -4.22692 17.3501 16.5915 -2.28188 -49.1957 8.32343
lowerback 20.9699 2.85525 4.25879
upperback 3.98517 4.7526 2.9776
thorax -7.26167 2.15751 -0.449951
lowerneck -13.2611 8.45368 -1.14894
upperneck 12.8101 13.1837 -9.43076
head 6.68381 5.54139 -1.51597
rclavicle -2.62396e-014 -4.13472e-014
rhumerus -11.3311 3.03648 -67.0467
rradius 130.554
rwrist -8.01852
rhand -4.98751 21.6373
rfingers 7.12502
rthumb 20.8054 -367.267
lclavicle -2.62396e-014 -4.13472e-014
lhumerus -9.80776 7.15223 83.9266
lradius 132.339
lwrist 7.10206
lhand -15.9491 12.4682
lfingers 7.12502
lthumb 10.2493 42.1985
rfemur -23.8962 -4.21523 -4.22001
rtibia 46.3659
rfoot -4.52772 -3.35212
rtoes -9.39912
lfemur -31.2114 16.4363 -15.1552
ltibia 55.7717
lfoot 6.43546 -11.5356
ltoes -36.4174
2095
root -4.12986 17.362 16.6562 -2.81141 -50.7403 9.51801
lowerback 21.4788 3.02356 4.67946
upperback 4.41129 5.02114 2.6607
thorax -6.98683 2.27766 -1.10956
lowerneck -13.2542 8.59599 -0.0998816
upperneck 12.392 13.2446 -10.089
head 6.66747 5.59094 -1.87659
rclavicle -1.11319e-013 -1.59028e-014
rhumerus -9.88454 1.96428 -66.8573
rradius 130.342
rwrist -8.36932
rhand -5.46312 21.7776
rfingers 7.12502
rthumb 20.3484 -367.176
lclavicle -1.11319e-013 -1.59028e-014
lhumerus -8.67069 7.33915 82.2681
lradius 132.178
lwrist 8.49904
lhand -15.3855 12.2327
lfingers 7.12502
lthumb 10.793 41.9355
rfemur -25.796 -4.71445 -4.92396
rtibia 47.0631
rfoot -4.84451 -4.82369
rtoes -8.7596
lfemur -32.3847 17.5531 -15.8244
ltibia 56.9204
lfoot 6.55841 -13.0216
ltoes -36.317
2096
root -4.02418 17.3599 16.7161 -3.17302 -52.1434 10.399
lowerback 22.1568 1.91304 3.27811
upperback 3.67181 3.49104 4.3389
thorax -8.42727 1.55596 1.88109
lowerneck -6.83658 9.94619 -2.87129
upperneck 9.4466 14.8938 -11.0913
head 4.62692 6.62301 -1.99032
rclavicle 3.73715e-014 2.22639e-014
rhumerus -8.4878 6.60807 -64.8721
rradius 131.115
rwrist -13.0514
rhand -1.99634 19.0652
rfingers 7.12502
rthumb 23.6769 -369.497
lclavicle 3.73715e-014 2.22639e-014
lhumerus -12.8165 12.9872 81.0754
lradius 133.325
lwrist 9.69243
lhand -14.4545 12.3039
lfingers 7.12502
lthumb 11.6908 41.9577
rfemur -27.788 -5.42592 -5.23504
rtibia 47.9982
rfoot -5.21047 -6.00103
rtoes -6.22911
lfemur -33.6323 18.1521 -16.1394
ltibia 57.975
lfoot 6.79139 -13.9048
ltoes -36.803
2097
root -3.90975 17.3451 16.7632 -3.3309 -53.551 11.0008
lowerback 22.295 2.22355 5.00218
upperback 5.43596 4.03894 3.51844
thorax -6.37463 1.79885 -0.115622
lowerneck -11.3033 9.16863 -2.59693
upperneck 9.80243 14.0905 -10.4271
head 5.42093 6.09637 -1.66198
rclavicle -1.11319e-014 -1.04958e-013
rhumerus -5.38049 2.82632 -64.8678
rradius 130.867
rwrist -13.3656
rhand -2.7354 19.5445
rfingers 7.12502
rthumb 22.9679 -369.107
lclavicle -1.11319e-014 -1.04958e-013
lhumerus -8.52909 12.2427 79.6853
lradius 132.922
lwrist 11.5637
lhand -13.6426 11.1094
lfingers 7.12502
lthumb 12.4737 40.7171
rfemur -30.051 -6.1891 -5.17192
rtibia 49.2306
rfoot -5.08145 -6.86157
rtoes -6.5995
lfemur -34.8699 18.5466 -16.1144
ltibia 58.9491
lfoot 7.00456 -14.1181
ltoes -36.9334
